<?xml version="1.0" standalone="no"?>
<!DOCTYPE svg PUBLIC "-//W3C//DTD SVG 20010904//EN"
 "http://www.w3.org/TR/2001/REC-SVG-20010904/DTD/svg10.dtd">
<svg version="1.0" xmlns="http://www.w3.org/2000/svg"
 width="565.000000pt" height="565.000000pt" viewBox="0 0 565.000000 565.000000"
 preserveAspectRatio="xMidYMid meet">
<metadata>
Created by potrace 1.14, written by Peter Selinger 2001-2017
</metadata>
<g transform="translate(0.000000,565.000000) scale(0.100000,-0.100000)"
fill="#000000" stroke="none">
<path d="M0 2825 l0 -2825 2825 0 2825 0 0 2825 0 2825 -2825 0 -2825 0 0
-2825z m4570 2315 c236 -29 409 -98 549 -221 100 -88 186 -242 216 -384 22
-104 22 -285 0 -390 -33 -156 -105 -293 -217 -411 -127 -134 -230 -208 -578
-419 -437 -264 -558 -372 -614 -543 -21 -64 -24 -172 -7 -227 26 -79 96 -130
168 -122 78 9 113 48 132 153 11 56 19 64 38 39 19 -26 10 -111 -17 -165 -40
-79 -131 -117 -237 -100 -131 22 -203 103 -225 258 -24 166 43 337 206 526 27
32 136 138 241 235 356 329 443 429 533 606 64 126 100 244 110 370 29 340
-78 583 -303 686 -174 79 -429 59 -560 -44 -109 -85 -157 -177 -163 -313 -7
-149 18 -212 163 -409 113 -155 147 -225 153 -320 14 -220 -145 -356 -378
-324 -205 29 -313 174 -339 458 -23 252 53 509 213 721 193 255 543 385 916
340z m-2461 -230 c266 -48 494 -148 688 -302 153 -121 256 -249 347 -427 124
-245 173 -529 147 -850 -28 -358 -106 -604 -267 -853 l-44 -69 29 -57 c55
-110 131 -311 240 -635 168 -498 241 -646 396 -803 97 -98 168 -140 273 -163
290 -61 520 118 618 484 14 55 33 124 41 153 8 32 19 52 28 52 54 0 16 -308
-62 -505 -89 -225 -201 -358 -378 -447 -96 -49 -161 -67 -282 -79 -295 -30
-560 65 -726 259 -115 135 -175 250 -250 473 -61 180 -96 330 -157 668 -29
157 -55 293 -59 302 -5 16 -11 15 -56 -13 -256 -160 -566 -237 -898 -225 -238
9 -406 50 -592 144 -468 236 -731 656 -775 1240 -20 254 5 469 80 695 174 525
577 868 1130 963 124 21 397 19 529 -5z m2107 -2831 c110 -73 127 -282 29
-368 -78 -68 -187 -66 -266 6 -63 57 -83 104 -84 195 0 69 3 80 30 120 44 63
83 80 176 76 61 -2 83 -8 115 -29z"/>
<path d="M1570 4804 c-173 -26 -298 -87 -434 -214 -171 -160 -296 -436 -335
-739 -34 -263 5 -643 95 -916 144 -438 435 -754 790 -858 l51 -15 -4 161 c-12
424 118 682 386 763 60 18 200 18 279 -1 111 -26 245 -107 334 -203 26 -28 49
-48 51 -44 8 14 37 180 47 267 15 135 12 426 -5 549 -34 239 -88 425 -176 599
-189 375 -478 597 -842 646 -75 11 -184 12 -237 5z"/>
<path d="M2087 2839 c-90 -26 -187 -154 -222 -294 -29 -117 -46 -390 -29 -475
l7 -32 166 5 c183 6 232 17 358 80 76 39 187 136 234 204 l31 45 -21 66 c-61
187 -157 322 -267 376 -46 22 -75 29 -138 32 -45 2 -98 -2 -119 -7z"/>
</g>
</svg>
